<?xml version="1.0" encoding="utf-8"?>
<!-- Generator: Adobe Illustrator 24.3.0, SVG Export Plug-In . SVG Version: 6.00 Build 0)  -->
<svg version="1.1" id="Слой_1" xmlns="http://www.w3.org/2000/svg" xmlns:xlink="http://www.w3.org/1999/xlink" x="0px" y="0px"
	 viewBox="0 0 200 200" style="enable-background:new 0 0 200 200;" xml:space="preserve">
<style type="text/css">
	.st0{fill:#5E410F;stroke:#000000;stroke-miterlimit:10;}
	.st1{fill:#BDBCBC;stroke:#000000;stroke-miterlimit:10;}
	.st2{fill:none;stroke:#000000;stroke-miterlimit:10;}
	.st3{fill:#3C3C3B;stroke:#282727;stroke-miterlimit:10;}
	.st4{fill:none;stroke:#B4B4B4;stroke-width:2;stroke-miterlimit:10;}
	.st5{fill:#2F4F9E;stroke:#000000;stroke-miterlimit:10;}
</style>
<polygon class="st0" points="37.27,162.35 44.03,169.05 22.9,183.62 1.78,198.19 16.14,176.93 30.51,155.66 "/>
<rect x="21.68" y="117.52" transform="matrix(0.7081 -0.7061 0.7061 0.7081 -69.5615 88.0245)" class="st1" width="100" height="21.26"/>
<rect x="95.85" y="72.35" transform="matrix(0.7061 0.7081 -0.7081 0.7061 93.6779 -57.1217)" class="st1" width="39.6" height="23.89"/>
<line class="st2" x1="96.28" y1="81.78" x2="113.12" y2="64.83"/>
<line class="st2" x1="99.84" y1="85.33" x2="116.68" y2="68.38"/>
<line class="st2" x1="103.17" y1="88.69" x2="120" y2="71.74"/>
<line class="st2" x1="106.26" y1="92.69" x2="123.1" y2="75.74"/>
<line class="st2" x1="109.37" y1="95.78" x2="126.21" y2="78.83"/>
<line class="st2" x1="112.54" y1="98.93" x2="129.38" y2="81.98"/>
<line class="st2" x1="116.54" y1="102.1" x2="133.38" y2="85.15"/>
<line class="st2" x1="119.25" y1="105.59" x2="136.09" y2="88.64"/>
<polygon class="st3" points="170.22,51.76 138.1,89.88 110.13,61.84 148.25,29.72 "/>
<path class="st0" d="M46.44,138.31l17.74-17.69c0,0,4.21-0.64,6.27,1.66c2.28,2.53,1.23,5.87,1.23,5.87s-1.06,3.87,1,5.94
	c2.21,2.21,6.5,1.59,6.5,1.59l-35.14,35.04l-15.01-15.05L46.44,138.31"/>
<path class="st4" d="M50.23,14.14c0,0,15.93,21.12-0.19,40.07c-12.3,14.46-22.12,4.77-30.36,31.14c-6.37,20.37,7.47,28.5,2.57,44.14
	c-3.33,10.64-14.03,12.78-17,25.67c-2.78,12.08,0.71,30.71,0.71,30.71"/>
<path class="st5" d="M198.29,20.38l-29.76,29.68l-19.12-19.17l29.76-29.68c0,0,0.83,3.89,2.03,5.27c1.41,1.62,4.5,3.47,6.65,3.44
	c2.26-0.03,6.13,0.87,7.34,2.29C198.29,15.88,198.29,20.38,198.29,20.38z"/>
</svg>
